PathFileType	4	(X/Y/Z)	Patient5_TMGait_0pt45_1_right_06.trc.trc
DataRate	CameraRate	NumFrames	NumMarkers	Units	OrigDataRate	OrigDataStartFrame	OrigNumFrames
63.636363636364	63.636363636364	4	32	mm	63.636363636364	106	       141
Frame#	Time	R.ASIS			L.ASIS			Chest			R.Shoulder			Neck			L.Shoulder			L.Elbow			L.Wrist			R.Elbow			R.Wrist			L.Thigh.Superior			L.Thigh.Lateral			L.Thigh.Inferior			L.Patella			L.Shank.Superior			L.Shank.Lateral			L.Shank.Inferior			L.Heel			L.Midfoot.Lateral			L.Midfoot.Superior			L.Toe			R.Thigh.Superior			R.Thigh.Lateral			R.Thigh.Inferior			R.Patella			R.Shank.Superior			R.Shank.Lateral			R.Shank.Inferior			R.Heel			R.Midfoot.Lateral			R.Midfoot.Superior			R.Toe			
		X1	Y1	Z1	X2	Y2	Z2	X3	Y3	Z3	X4	Y4	Z4	X5	Y5	Z5	X6	Y6	Z6	X7	Y7	Z7	X8	Y8	Z8	X9	Y9	Z9	X10	Y10	Z10	X11	Y11	Z11	X12	Y12	Z12	X13	Y13	Z13	X14	Y14	Z14	X15	Y15	Z15	X16	Y16	Z16	X17	Y17	Z17	X18	Y18	Z18	X19	Y19	Z19	X20	Y20	Z20	X21	Y21	Z21	X22	Y22	Z22	X23	Y23	Z23	X24	Y24	Z24	X25	Y25	Z25	X26	Y26	Z26	X27	Y27	Z27	X28	Y28	Z28	X29	Y29	Z29	X30	Y30	Z30	X31	Y31	Z31	X32	Y32	Z32	

106	11.270000000000	999.917335865706	1023.738114694487	540.379537533522	1029.242656069260	962.066525877069	295.695403486944	1088.506431115656	1442.105865185854	429.050822706404	951.268368090832	1512.574635732057	562.279219820496	981.650142597190	1570.740051375717	380.290856733107	1089.060804900208	1509.666454059587	226.387602119331	1068.481839022264	1189.798155223920	84.551876845606	1209.436371354513	939.553452606229	109.781965233327	825.187492005462	1195.044785207233	674.057567392143	1044.718882498352	1005.083812210539	663.538118389847	1024.362604030919	735.587941291487	306.608573516363	946.306699472070	672.845961755947	260.173719249977	1000.440851652814	608.789613454908	332.849221507249	983.162376013352	494.736602303352	341.945017952027	924.315974261693	399.104703117347	360.626081436357	859.612298594363	333.774572884977	277.548084134331	877.980284990540	280.424035363572	370.142266324908	723.900507099468	53.927954437012	366.306878299577	815.722060784887	28.208634829963	312.548962480504	910.617645452283	88.312343491798	361.755232185321	1016.865739626144	43.491025679202	372.958070384868	1065.460628636171	824.133291960457	595.633331636159	1005.860008741257	735.751535357551	652.777150515266	1110.161247218722	704.896862026250	600.080866369014	1140.813168019544	612.320810185849	650.793910458989	1109.694524415815	497.088302758172	615.693737083249	1023.982807541514	430.663191727893	684.768312952470	1094.658584830074	357.444073562040	619.802405287153	985.250660799387	133.123821226513	580.312570885720	1050.873838406576	95.782747771517	662.428982774548	1157.205417712853	162.837065007339	667.937552802758	1259.632114496889	118.636074021680	680.490178891506	
107	11.285714285714	999.581426194780	1022.980688392908	541.054814242982	1027.588223546504	962.313819833916	295.406350939165	1085.984795434964	1442.250340595273	429.672626541122	948.588297629836	1512.394557601916	563.272950532060	978.796006641820	1570.634302416459	381.316906367210	1086.025340036235	1509.809484860551	227.113855484276	1065.987516663168	1189.603918286511	85.937301944190	1206.696393609117	939.253449809922	111.919111327683	821.428865248799	1195.108288750790	674.465185151406	1041.633743084740	1005.865433095372	665.078234143541	1021.566734585791	735.450430289200	306.226787769112	942.627757150257	673.167142822305	259.991005055128	996.397556354093	608.642744137299	332.094491988272	977.926394711906	494.589012371609	340.604932444083	918.584330806733	399.455592772891	359.731405334222	852.649842509718	334.629190002357	277.184144189162	871.943253518818	280.934320640988	369.519879118956	716.980113861885	54.869215767781	366.402793812247	808.669776962193	28.615978996015	312.691474391043	903.823753509490	88.555369719103	361.454679761610	1009.755999891753	43.496627597792	372.877658334407	1070.689494717034	825.219122000221	594.458128762593	1012.162792046106	736.196646838408	652.086222969373	1116.082956674642	706.915237602369	597.618537691877	1148.755870900691	614.658650035584	647.815846629676	1117.941449166740	498.854329491518	613.213714851451	1034.031536946087	431.718543400128	683.712900775151	1103.961172817421	359.135621527273	617.280466164873	995.315240433890	133.970816440195	579.358747607958	1062.701127805085	97.243842562211	660.487385695682	1168.460476990482	165.271638132295	664.049531414819	1271.404607594592	121.932582734928	674.855994125842	
108	11.301428571429	999.452934961226	1021.994965136332	541.671100001128	1025.916506947094	962.485659702988	295.066913561654	1083.615258596515	1442.389656549970	430.323185130623	946.229603278950	1512.067703070053	564.525973619531	975.960230318976	1570.470001403767	382.580169796648	1082.808953920092	1510.050320849713	227.899022078070	1063.163961531026	1189.517602634967	87.337865430635	1203.627139547600	939.054829667113	114.084921821851	817.927058577759	1195.116239653562	675.307050050910	1038.524511354964	1006.304848158475	666.759524938343	1018.875520649773	735.369914499951	305.845904735892	939.018737136771	673.461405564877	259.901765623101	992.520102902866	608.561006805042	331.373488403355	972.847491423293	494.490573634796	339.364880190680	913.020911761613	399.811983780142	358.954636159506	845.869707989585	335.515678652577	276.954701282335	866.054987842657	281.449778032837	368.999308354648	710.097895580245	55.915586989063	366.553380153846	801.632965639345	29.122837528995	312.841352311311	897.052895835885	88.776368306940	361.200963529273	1002.656007767795	43.535092763913	372.769098520144	1075.827111704697	825.675533342600	593.005916096480	1018.077122721132	736.257023853310	651.260156174497	1121.365310262223	708.220938840413	594.875780177421	1155.872109615982	616.261129558034	644.505221634725	1125.202924329670	500.006079616373	610.444615901823	1043.180860836682	432.276580962289	682.482985491753	1112.220242449899	360.230626800534	614.549534733845	1004.094715811293	134.321446365938	578.522159286270	1073.417596763200	98.105909725604	658.367325101808	1178.630006278262	167.029719300872	659.770709723558	1282.066448593674	124.498660766325	668.505659026120	
109	11.317142857143	999.559666814180	1020.793394221227	542.220515400109	1024.257440456296	962.570585815765	294.725243071773	1081.415475668913	1442.495669899966	430.993974457341	944.230614860374	1511.576663810493	566.026106946836	973.164979409700	1570.225054587472	384.067942673741	1079.416931565238	1510.345717153243	228.725881089419	1059.991010974040	1189.490692471602	88.744248052669	1200.259928338839	938.933281638620	116.208099159611	814.796138200564	1195.029726135581	676.594822358153	1035.466032667932	1006.313853335905	668.549534719633	1016.326548084143	735.306867168656	305.523288178713	935.552551412905	673.712745662464	259.920559936913	988.861149806184	608.506867738871	330.765398632464	967.960235760551	494.421351629807	338.321850092102	907.671029347701	400.135584159360	358.355149616987	839.345004350038	336.392589987781	276.903124712226	860.324921861865	281.939613253124	368.622312730457	703.252005714626	57.039758680011	366.769296321549	794.611469547221	29.725004752007	313.002906799544	890.299818841022	88.964959811132	361.014773123380	995.569447238348	43.594263060826	372.641416384876	1080.641105791851	825.502405614682	591.319830354245	1023.480413407324	735.850183242542	650.305394662218	1125.933459957212	708.748033107462	591.916844844427	1162.044367298123	617.038707200282	640.915764646067	1131.428997643911	500.469042621296	607.420291794579	1051.349038991248	432.222616755172	681.040980632500	1119.426175758843	360.646647174800	611.627454971860	1011.748529617195	134.053607134555	577.691648840875	1083.075358217645	98.281770122265	656.048790700839	1187.743874543833	168.053304719311	655.213519984414	1291.645552405439	126.294321398538	661.693252607932	
